<svg width="208" height="47" viewBox="0 0 208 47" fill="none" xmlns="http://www.w3.org/2000/svg">
<path d="M0.407959 32.6924C2.2123 36.9379 5.22631 40.5583 9.07427 43.1025C12.9222 45.6467 17.4339 47.002 22.0469 46.9996C20.2419 42.7545 17.2278 39.1345 13.38 36.5904C9.53213 34.0463 5.02078 32.6907 0.407959 32.6924Z" fill="#00BE64"/>
<path d="M22.0324 35.242C31.7642 35.242 39.6533 27.3528 39.6533 17.621C39.6533 7.88918 31.7642 0 22.0324 0C12.3006 0 4.41138 7.88918 4.41138 17.621C4.41138 27.3528 12.3006 35.242 22.0324 35.242Z" fill="#FFB900"/>
<path d="M22.0464 47C25.4327 46.9992 28.7471 46.023 31.5932 44.1881C34.4393 42.3532 36.6967 39.7373 38.0953 36.6533C34.7089 36.6538 31.3943 37.6299 28.5481 39.4648C25.7019 41.2997 23.4447 43.9158 22.0464 47Z" fill="#00BE64"/>
<path d="M22.0322 26.4296C26.8973 26.4296 30.8412 22.4857 30.8412 17.6206C30.8412 12.7555 26.8973 8.81152 22.0322 8.81152C17.1671 8.81152 13.2231 12.7555 13.2231 17.6206C13.2231 22.4857 17.1671 26.4296 22.0322 26.4296Z" fill="#003C96"/>
<path d="M135.401 17.6212H142.759V46.1896H135.401V35.0611H122.531V46.1896H115.167V17.6212H122.537V28.149H135.407L135.401 17.6212ZM146.242 24.7058H155.419V46.1896H162.788V24.7058H171.853V17.6212H146.242V24.7058ZM207.592 39.9729V46.0459C206.336 46.6753 204.764 46.9886 202.933 46.9886C199.105 46.9886 197.185 45.3216 196.403 42.6372L196.28 42.8183C194.052 45.6176 190.968 46.9886 186.968 46.9886C183.139 46.9886 179.883 45.5515 177.141 42.6458C174.454 39.7315 173.083 36.1332 173.083 31.9054C173.083 27.6776 174.454 24.1454 177.141 21.2196C179.883 18.3052 183.139 16.8193 186.968 16.8193C190.796 16.8193 193.779 18.0782 195.981 20.6361V17.6212H203.353V37.8289C203.353 39.5533 204.137 40.4443 205.707 40.4443C206.367 40.4641 207.019 40.301 207.592 39.9729ZM196.28 31.9054C196.28 29.563 195.538 27.6201 193.98 26.1342C192.495 24.5909 190.609 23.8493 188.324 23.8493C186.039 23.8493 184.154 24.5909 182.668 26.1342C181.182 27.6201 180.441 29.563 180.441 31.9054C180.441 34.2478 181.182 36.1906 182.668 37.7311C184.153 39.2161 186.038 39.9595 188.324 39.9614C190.61 39.9634 192.496 39.2199 193.98 37.7311C195.538 36.1906 196.28 34.2478 196.28 31.9054ZM54.441 17.6212L54.2369 28.353C54.1823 32.6986 54.0271 34.8456 53.3977 37.3058C52.8229 39.6597 51.7221 40.3265 49.9948 40.3265C49.4806 40.3455 48.967 40.2745 48.4773 40.1166V46.1896C49.0521 46.5028 49.9948 46.6609 51.2508 46.6609C56.4241 46.5028 58.9476 44.057 60.2035 39.6597C61.0945 36.5183 61.2497 34.1127 61.4078 30.5L61.5716 24.7058H70.7255V46.1896H78.0918V17.6212H54.441ZM89.9388 33.831C90.732 38.717 94.5977 40.3035 98.5208 40.3035C101.107 40.3035 103.841 39.2889 105.519 37.7685L110.066 42.3412C107.35 45.3475 103.571 47.0001 98.4058 47.0001C91.1746 47.0001 82.4518 42.7321 82.4518 31.9169C82.4518 21.1017 90.8499 16.8308 97.9718 16.8308C106.996 16.8308 110.733 21.0701 110.733 25.8238C110.744 33.5839 100.866 37.1736 89.9388 33.831ZM102.74 26.6458C102.74 24.4299 100.547 23.4412 98.0925 23.4412C94.339 23.4412 91.0884 25.0248 90.0997 29.1003C97.7448 31.3162 102.74 29.6694 102.74 26.6544V26.6458Z" fill="#003C96"/>
</svg>
